<?xml version="1.0" encoding="UTF-8"?>
<svg id="b" data-name="Ebene 2" xmlns="http://www.w3.org/2000/svg" width="48" height="48" viewBox="0 0 48 48">
  <g id="c" data-name="Ebene 1">
    <g>
      <path d="m11.67,44.6C.32,37.79-3.39,23.03,3.39,11.64,7.81,4.21,15.71.06,23.7,0l-.03,2.3c-7.25.06-14.27,3.61-18.37,10.49-6.16,10.35-2.61,23.52,7.64,29.66s23.49,3.03,29.64-7.31c4.29-7.21,4.02-15.51.22-22.12l2.01-1.26c4.18,7.36,4.4,16.6-.31,24.52-6.78,11.39-21.49,15.11-32.84,8.31Z" stroke-width="0"/>
      <path d="m10.19,16.21c0-2.92,2.34-5.3,5.25-5.3s5.27,2.37,5.27,5.3-2.34,5.3-5.27,5.3-5.25-2.36-5.25-5.3Zm8.57,0c0-1.85-1.48-3.36-3.32-3.36s-3.31,1.51-3.31,3.36,1.46,3.36,3.31,3.36,3.32-1.51,3.32-3.36Z" stroke-width="0"/>
      <path d="m19.97,35.25c0-2.92,2.34-5.3,5.25-5.3s5.27,2.37,5.27,5.3-2.34,5.3-5.27,5.3-5.25-2.36-5.25-5.3Zm8.57,0c0-1.85-1.48-3.36-3.32-3.36s-3.31,1.51-3.31,3.36,1.46,3.36,3.31,3.36,3.32-1.51,3.32-3.36Z" stroke-width="0"/>
      <path d="m27.77,10.95v-6.23h1.87v4.26h2.31v-4.26h1.87v4.26h2.35v-4.26h1.87v6.23h-10.28Z" stroke-width="0"/>
      <path d="m38.11,13.04v2.81c0,3.49-2.22,5.45-5.14,5.45s-5.14-2.22-5.14-5.37v-2.9h10.28Zm-1.82,1.96h-6.64v.71c0,2.23,1.44,3.63,3.32,3.63s3.32-1.19,3.32-3.72v-.62Z" stroke-width="0"/>
      <path d="m22.95,16.8h1.96v8.44h3.72v1.88h-5.67v-10.31Z" stroke-width="0"/>
    </g>
  </g>
</svg>