<?xml version="1.0" encoding="utf-8"?>
<!-- Generator: Adobe Illustrator 19.2.1, SVG Export Plug-In . SVG Version: 6.00 Build 0)  -->
<svg version="1.1" id="Layer_1" xmlns="http://www.w3.org/2000/svg" xmlns:xlink="http://www.w3.org/1999/xlink" x="0px" y="0px"
	 viewBox="0 0 132 82" style="enable-background:new 0 0 132 82;" xml:space="preserve">
<style type="text/css">
	.st0{fill:#e3000b;}
</style>
<g>
	<path class="st0" d="M41.2,52.6c-0.9,6.3-2.3,16.3-2.3,16.3H29l-7.1-55.6h10.6c0,0,1.2,11.7,1.8,19.3c0.4,3.8,0.5,13.4,0.5,13.4
		s0-9.7,0.6-13.5c1.1-7.4,2.2-14.3,2.9-19.2h9c0.9,6.7,1.6,11.8,2.5,19.3c0.8,6.1,0.9,13.4,0.9,13.4s-0.1-7.4,0.6-13.4
		c0.9-7.5,2.3-19.3,2.3-19.3h9.6l-8.2,55.6H46c0,0-1.2-9.9-2-16.3C43.3,46.3,42.5,41,42.5,41S42,46.3,41.2,52.6z"/>
	<path class="st0" d="M66.2,13.3h11.5v43.8c0,3.2,0.4,4.6,2.5,4.6c2.2,0,2.5-1.2,2.5-4.6V13.3h10.7v44.8c0,7.3-2.5,12-13.2,12
		c-9.1,0-13.9-4-13.9-12V13.3z"/>
	<path class="st0" d="M132,68.9h-13.3l-8.5-20.6v20.6H98.8V13.3h11.5v18.8l8.8-18.8h11.9l-12.3,25.6L132,68.9z"/>
	<rect width="10.6" height="82"/>
</g>
</svg>
